<svg xmlns="http://www.w3.org/2000/svg" xmlns:xlink="http://www.w3.org/1999/xlink" viewBox="0 0 56.61 56.61"><defs><style>.cls-1{isolation:isolate;}.cls-2{fill:url(#linear-gradient);}.cls-3,.cls-4,.cls-5{fill:#fccc9f;}.cls-3{mix-blend-mode:multiply;}.cls-4{opacity:0.5;}.cls-4,.cls-5{mix-blend-mode:overlay;}.cls-5{opacity:0.29;}</style><linearGradient id="linear-gradient" x1="69.39" y1="-99.6" x2="41.89" y2="-149.1" gradientTransform="translate(-26.98 153.31)" gradientUnits="userSpaceOnUse"><stop offset="0" stop-color="#9e1d36"/><stop offset="0.74" stop-color="#ff7943"/><stop offset="1" stop-color="#ffa255"/></linearGradient></defs><title>4-mars</title><g class="cls-1"><g id="Layer_1" data-name="Layer 1"><circle class="cls-2" cx="28.31" cy="28.31" r="28.31"/><path class="cls-3" d="M127.17,66.23c-5-.93-6.38,5.83-.07,6.69,5.55.76,6.27,6.6,6,8.32-1,7,8.9,10.19,11.19,3.3C146.17,79,143,69.19,127.17,66.23Z" transform="translate(-92.35 -60.41)"/><path class="cls-3" d="M128.76,75.7c-2.3-1.38-5.68,2.34-4.51,3.68s2,4.85,4,3.68S130.43,76.7,128.76,75.7Z" transform="translate(-92.35 -60.41)"/><path class="cls-3" d="M103.52,97.45c4.06,8.11,10,7.25,21.1,8.74s6.33,6.29,2.13,7c-16.84,3-28.21-7.63-28.56-15.13C98,93.59,100.53,91.48,103.52,97.45Z" transform="translate(-92.35 -60.41)"/><path class="cls-3" d="M101,75.92c-3.47,1.06-3.2,9.59-1.07,10.66s4,.85,5.33-.85S108.63,73.58,101,75.92Z" transform="translate(-92.35 -60.41)"/><path class="cls-3" d="M124.38,96.94c-2.9-1.16-5,3.68-3.84,4.51s3.17,3.51,5.51,2.51S125.22,97.28,124.38,96.94Z" transform="translate(-92.35 -60.41)"/><path class="cls-4" d="M114.55,65.59c-1.49-1-2.71,2.3-2.3,2.92s.63,2.51,2.09,1.88a5.1,5.1,0,0,0,2.92-2.51C117.69,66.84,115.81,66.42,114.55,65.59Z" transform="translate(-92.35 -60.41)"/><path class="cls-5" d="M136.27,91.89c-3.76-.63-6.06-1.67-5.85,1.25s-1.88,4.38.21,6.68,2.71,3.13,5.22,3.13,6.47-3.76,6.89-9S136.27,91.89,136.27,91.89Z" transform="translate(-92.35 -60.41)"/><path class="cls-4" d="M110.17,93.36c-1.72-.13-3.34,3.55-1,4.18s3.34.84,4.18-.63S112.88,93.56,110.17,93.36Z" transform="translate(-92.35 -60.41)"/></g></g></svg>