<?xml version="1.0" encoding="utf-8"?>
<!-- Generator: Adobe Illustrator 21.0.0, SVG Export Plug-In . SVG Version: 6.00 Build 0)  -->
<svg version="1.1" id="Layer_1" xmlns="http://www.w3.org/2000/svg" xmlns:xlink="http://www.w3.org/1999/xlink" x="0px" y="0px"
	 viewBox="0 0 56.6 56.6" style="enable-background:new 0 0 56.6 56.6;" xml:space="preserve">
<style type="text/css">
	.st0{fill:url(#SVGID_1_);}
	.st1{fill:#FCCC9F;}
	.st2{opacity:0.5;fill:#FCCC9F;}
	.st3{opacity:0.29;fill:#FCCC9F;}
</style>
<title>4-mars</title>
<g>
	
		<linearGradient id="SVGID_1_" gradientUnits="userSpaceOnUse" x1="56.8018" y1="55.7791" x2="29.3034" y2="6.282" gradientTransform="matrix(0.849 0.5283 -0.5283 0.849 8.1085 -19.7175)">
		<stop  offset="3.271732e-03" style="stop-color:#9E1D36"/>
		<stop  offset="0.7414" style="stop-color:#FF7943"/>
		<stop  offset="0.9952" style="stop-color:#FFA255"/>
	</linearGradient>
	<circle class="st0" cx="28.3" cy="28.6" r="28.3"/>
	<path class="st1" d="M45.7,13c-3.7-3.4-8.5,1.6-3.6,5.6c4.3,3.6,1.8,8.9,0.7,10.3c-4.6,5.4,2.2,13.4,7.8,8.7
		C55.1,33.9,57.6,23.9,45.7,13z"/>
	<path class="st1" d="M42.1,21.9c-1.2-2.4-6.1-1-5.8,0.7c0.3,1.8-0.9,5.2,1.5,5.2C40.1,27.9,43,23.6,42.1,21.9z"/>
	<path class="st1" d="M9.1,27c-0.8,9,4.7,11.4,13.3,18.6s2.1,8.7-1.9,7.1C4.7,46.3,0.6,31.3,4.3,24.7C6.5,20.8,9.8,20.3,9.1,27z"/>
	<path class="st1" d="M18.3,7.4c-3.5-0.9-7.8,6.5-6.5,8.5s3,2.9,5,2.1S26.1,9.4,18.3,7.4z"/>
	<path class="st1" d="M27.1,37.6c-1.8-2.5-6.2,0.5-5.6,1.8c0.6,1.3,0.8,4.7,3.4,5S27.7,38.3,27.1,37.6z"/>
	<path class="st2" d="M35.3,5.8c-0.7-1.6-3.5,0.5-3.5,1.3s-0.8,2.5,0.8,2.7c1.6,0.2,2.9,0.1,3.8-0.6C37.3,8.5,36,7.1,35.3,5.8z"/>
	<path class="st3" d="M39.9,39.6c-2.9-2.5-4.3-4.6-5.6-2c-1.4,2.6-3.9,2.7-3.4,5.8s0.6,4.1,2.8,5.4s7.5,0.2,10.6-4
		S39.9,39.6,39.9,39.6z"/>
	<path class="st2" d="M17,27c-1.4-1-4.7,1.2-3.1,3s2.4,2.5,3.9,1.7C19.2,30.9,19.1,28.6,17,27z"/>
</g>
</svg>
