<svg xmlns="http://www.w3.org/2000/svg" xmlns:xlink="http://www.w3.org/1999/xlink" viewBox="0 0 56.59 56.6"><defs><style>.cls-1{isolation:isolate;}.cls-2{fill:url(#linear-gradient);}.cls-3{fill:url(#linear-gradient-2);}.cls-4{fill:url(#linear-gradient-3);}.cls-5{fill:url(#linear-gradient-4);}.cls-6{fill:url(#linear-gradient-5);}.cls-7{fill:url(#linear-gradient-6);}.cls-8{fill:url(#linear-gradient-7);}.cls-10,.cls-9{opacity:0.54;}.cls-10,.cls-11,.cls-9{mix-blend-mode:multiply;}.cls-9{fill:url(#linear-gradient-8);}.cls-10{fill:url(#linear-gradient-9);}.cls-11{fill:url(#linear-gradient-10);}.cls-12{opacity:0.65;fill:url(#linear-gradient-11);}</style><linearGradient id="linear-gradient" x1="92.8" y1="66.51" x2="169.26" y2="91.11" gradientTransform="translate(54.59 -45.61) rotate(31.89)" gradientUnits="userSpaceOnUse"><stop offset="0.02" stop-color="#75cdff"/><stop offset="0.13" stop-color="#72c6f7"/><stop offset="0.31" stop-color="#6ab4e2"/><stop offset="0.52" stop-color="#5c95be"/><stop offset="0.76" stop-color="#496c8e"/><stop offset="1" stop-color="#343d57"/></linearGradient><linearGradient id="linear-gradient-2" x1="107.71" y1="61.4" x2="164.31" y2="61.4" xlink:href="#linear-gradient"/><linearGradient id="linear-gradient-3" x1="111.21" y1="49.48" x2="176.15" y2="71.05" xlink:href="#linear-gradient"/><linearGradient id="linear-gradient-4" x1="107.71" y1="99.19" x2="164.31" y2="99.19" xlink:href="#linear-gradient"/><linearGradient id="linear-gradient-5" x1="103.52" y1="90.26" x2="159.79" y2="107.94" xlink:href="#linear-gradient"/><linearGradient id="linear-gradient-6" x1="115.76" y1="63.78" x2="121.85" y2="65.7" gradientTransform="translate(54.59 -45.61) rotate(31.89)" gradientUnits="userSpaceOnUse"><stop offset="0" stop-color="#3e71c2"/><stop offset="0.02" stop-color="#4073c3"/><stop offset="0.24" stop-color="#518ccc"/><stop offset="0.46" stop-color="#5d9dd3"/><stop offset="0.71" stop-color="#64a8d7"/><stop offset="1" stop-color="#66abd8"/></linearGradient><linearGradient id="linear-gradient-7" x1="113.29" y1="80.84" x2="129.34" y2="85.89" xlink:href="#linear-gradient-6"/><linearGradient id="linear-gradient-8" x1="149.53" y1="78.38" x2="161.97" y2="82.28" gradientTransform="translate(54.59 -45.61) rotate(31.89)" gradientUnits="userSpaceOnUse"><stop offset="0" stop-color="#5d98c2"/><stop offset="0" stop-color="#5d98c2" stop-opacity="0.99"/><stop offset="0.13" stop-color="#5f9dc8" stop-opacity="0.76"/><stop offset="0.25" stop-color="#61a1cd" stop-opacity="0.56"/><stop offset="0.38" stop-color="#63a5d1" stop-opacity="0.39"/><stop offset="0.52" stop-color="#64a8d4" stop-opacity="0.26"/><stop offset="0.66" stop-color="#65a9d6" stop-opacity="0.17"/><stop offset="0.81" stop-color="#66abd8" stop-opacity="0.12"/><stop offset="1" stop-color="#66abd8" stop-opacity="0.1"/></linearGradient><linearGradient id="linear-gradient-9" x1="162.02" y1="15.94" x2="175.55" y2="20.19" gradientTransform="translate(-35.47 96.28) rotate(-1)" xlink:href="#linear-gradient-8"/><linearGradient id="linear-gradient-10" x1="134.06" y1="80.19" x2="140.97" y2="78.28" xlink:href="#linear-gradient-8"/><linearGradient id="linear-gradient-11" x1="141.78" y1="61.83" x2="153.62" y2="65.55" gradientTransform="translate(54.59 -45.61) rotate(31.89)" gradientUnits="userSpaceOnUse"><stop offset="0" stop-color="#5d98c2"/><stop offset="0.19" stop-color="#609fca"/><stop offset="0.56" stop-color="#65a8d5"/><stop offset="1" stop-color="#66abd8"/></linearGradient></defs><title>8-neptune</title><g class="cls-1"><g id="Layer_1" data-name="Layer 1"><path class="cls-2" d="M135.72,120.87a28.29,28.29,0,0,0,20-20.71c-2,.43-4.89-.71-9.1-4.8-6.79-6.6-17.64-21.61-19.88-30a28.29,28.29,0,0,0-26.57,24.27C104.23,95.45,117.43,112.71,135.72,120.87Z" transform="translate(-99.86 -65.31)"/><path class="cls-3" d="M155.68,100.17a28.29,28.29,0,0,0-29-34.82c2.23,8.41,13.08,23.42,19.88,30C150.79,99.45,153.73,100.59,155.68,100.17Z" transform="translate(-99.86 -65.31)"/><path class="cls-4" d="M155.68,100.17a28.29,28.29,0,0,0-29-34.82c2.23,8.41,13.08,23.42,19.88,30C150.79,99.45,153.73,100.59,155.68,100.17Z" transform="translate(-99.86 -65.31)"/><path class="cls-5" d="M113.2,117.63a28.22,28.22,0,0,0,22.52,3.24c-18.29-8.16-31.5-25.42-35.59-31.25A28.3,28.3,0,0,0,113.2,117.63Z" transform="translate(-99.86 -65.31)"/><path class="cls-6" d="M113.2,117.63a28.22,28.22,0,0,0,22.52,3.24c-18.29-8.16-31.5-25.42-35.59-31.25A28.3,28.3,0,0,0,113.2,117.63Z" transform="translate(-99.86 -65.31)"/><path class="cls-7" d="M123.75,69.66a5.36,5.36,0,0,0-6.27,3.21c-.57,1.78,1.24,2,3.36,1.74S128.11,70.95,123.75,69.66Z" transform="translate(-99.86 -65.31)"/><path class="cls-8" d="M116.6,86c-3.42-2.3-9.77-2.88-8,.88s.74,8.82,7.12,8S120.24,88.45,116.6,86Z" transform="translate(-99.86 -65.31)"/><path class="cls-9" d="M145.72,102.35c-3.17-1.43-9.84.1-6,2.83s6.72,5.78,8.81,3S149.89,104.23,145.72,102.35Z" transform="translate(-99.86 -65.31)"/><path class="cls-10" d="M132,104.67c-4.65-1.17-3.41,9.94.1,12.3s6.49-.26,6.45-2.53S136,105.66,132,104.67Z" transform="translate(-99.86 -65.31)"/><path class="cls-11" d="M131.51,91.09c-2.14-.27-5.45,1.05-4.62,3.71s2.39,4.16,4.2,3S131.51,91.09,131.51,91.09Z" transform="translate(-99.86 -65.31)"/><path class="cls-12" d="M146.75,83c-3-1.84-4.53-.5-2.92,2.83s1.79,6.14,4,5.61S152,86.31,146.75,83Z" transform="translate(-99.86 -65.31)"/></g></g></svg>