<svg xmlns="http://www.w3.org/2000/svg" xmlns:xlink="http://www.w3.org/1999/xlink" viewBox="0 0 56.52 56.5"><defs><linearGradient id="linear-gradient" x1="82.97" y1="14.87" x2="52.56" y2="62.48" gradientTransform="translate(96.4 66.37) rotate(180)" gradientUnits="userSpaceOnUse"><stop offset="0" stop-color="#776558"/><stop offset="0.66" stop-color="#f2e6d8"/><stop offset="1" stop-color="#d9cdbf"/></linearGradient><linearGradient id="linear-gradient-2" x1="94.93" y1="-99.67" x2="81.01" y2="-77.88" gradientTransform="matrix(-0.16, 0.99, 1.42, 0.23, 166.26, -58.36)" gradientUnits="userSpaceOnUse"><stop offset="0" stop-color="#a69b8d" stop-opacity="0"/><stop offset="0.01" stop-color="#a69b8d" stop-opacity="0.01"/><stop offset="0.69" stop-color="#7e6f63" stop-opacity="0.72"/><stop offset="1" stop-color="#736355"/></linearGradient><linearGradient id="linear-gradient-3" x1="18.6" y1="29.23" x2="7.08" y2="47.28" gradientUnits="userSpaceOnUse"><stop offset="0" stop-color="#a69b8d"/><stop offset="0.33" stop-color="#8c7f74"/><stop offset="1" stop-color="#736355"/></linearGradient><linearGradient id="linear-gradient-4" x1="53.37" y1="17.02" x2="33.13" y2="48.7" gradientTransform="matrix(1, 0, 0, 1, 0, 0)" xlink:href="#linear-gradient"/></defs><title>Asset 2</title><g id="Layer_2" data-name="Layer 2"><g id="Layer_1-2" data-name="Layer 1"><circle cx="28.27" cy="28.25" r="28.25" transform="translate(-9.91 16.45) rotate(-27.81)" style="fill:url(#linear-gradient)"/><path d="M15.94,6.4c-4.05,5.6,5.57,12,8.92,9.08S34.55,7.4,41.74,5.76,24.13-5,15.94,6.4Z" style="opacity:0.7900000214576721;isolation:isolate;fill:url(#linear-gradient-2)"/><path d="M0,28.23s-.59,9,6.67,18.15S55.93,41.6,0,28.23Z" style="fill:url(#linear-gradient-3)"/><path d="M41.31,53.39s-19.87-20.1-8-28.18S39.94,33,43.45,31.1,51.78,15.75,55,29.27C58.43,43.71,41.62,53.71,41.31,53.39Z" style="fill:url(#linear-gradient-4)"/></g></g></svg>