<svg id="Layer_1" data-name="Layer 1" xmlns="http://www.w3.org/2000/svg" xmlns:xlink="http://www.w3.org/1999/xlink" viewBox="0 0 499.92 500"><defs><style>.cls-1{fill:none;}.cls-2{fill:#fff;}.cls-3{clip-path:url(#clip-path);}.cls-4{fill:#1a1a1a;}.cls-5{fill:url(#New_Pattern_Swatch_5);}</style><clipPath id="clip-path"><rect class="cls-1" width="396.91" height="282.77"/></clipPath><pattern id="New_Pattern_Swatch_5" data-name="New Pattern Swatch 5" width="396.91" height="282.77" patternTransform="translate(188.78 95.47) scale(0.49)" patternUnits="userSpaceOnUse" viewBox="0 0 396.91 282.77"><rect class="cls-1" width="396.91" height="282.77"/><path class="cls-2" d="M312.61,191.21a.5.5,0,0,0,0,1A.5.5,0,0,0,312.61,191.21Z"/><path class="cls-2" d="M322,239.21a.5.5,0,0,0,0,1A.5.5,0,0,0,322,239.21Z"/><path class="cls-2" d="M382.25,235a.5.5,0,0,0,0,1A.5.5,0,0,0,382.25,235Z"/><path class="cls-2" d="M370.49,275.92a.5.5,0,0,0,0,1A.5.5,0,0,0,370.49,275.92Z"/><path class="cls-2" d="M384.14,153.57a.5.5,0,0,0,0,1A.5.5,0,0,0,384.14,153.57Z"/><path class="cls-2" d="M342.25,278.27a.5.5,0,0,0,0,1A.5.5,0,0,0,342.25,278.27Z"/><path class="cls-2" d="M333.78,258a.5.5,0,0,0,0,1A.5.5,0,0,0,333.78,258Z"/><path class="cls-2" d="M365.31,229.8a.5.5,0,0,0,0,1A.5.5,0,0,0,365.31,229.8Z"/><path class="cls-2" d="M366.72,198.74a.5.5,0,0,0,0,1A.5.5,0,0,0,366.72,198.74Z"/><path class="cls-2" d="M301.31,202a.5.5,0,0,0,0,1A.5.5,0,0,0,301.31,202Z"/><path class="cls-2" d="M345.55,167.69a.5.5,0,0,0,0,1A.5.5,0,0,0,345.55,167.69Z"/><path class="cls-2" d="M307.9,197.33a.5.5,0,0,0,0,1A.5.5,0,0,0,307.9,197.33Z"/><path class="cls-2" d="M308.84,152.63a.5.5,0,0,0,0,1A.5.5,0,0,0,308.84,152.63Z"/><path class="cls-2" d="M369.08,158.74a.5.5,0,0,0,0,1A.5.5,0,0,0,369.08,158.74Z"/><path class="cls-2" d="M322.49,223.21a.5.5,0,0,0,0,1A.5.5,0,0,0,322.49,223.21Z"/><path class="cls-2" d="M11.7,190.74a.5.5,0,0,0,0,1A.5.5,0,0,0,11.7,190.74Z"/><path class="cls-2" d="M14.05,147.92a.5.5,0,0,0,0,1A.5.5,0,0,0,14.05,147.92Z"/><path class="cls-2" d="M53.58,195.92a.5.5,0,0,0,0,1A.5.5,0,0,0,53.58,195.92Z"/><path class="cls-2" d="M79.93,180.39a.5.5,0,0,0,0,1A.5.5,0,0,0,79.93,180.39Z"/><path class="cls-2" d="M94.52,164.86a.5.5,0,0,0,0,1A.5.5,0,0,0,94.52,164.86Z"/><path class="cls-2" d="M67.23,243.92a.5.5,0,0,0,0,1A.5.5,0,0,0,67.23,243.92Z"/><path class="cls-2" d="M28.64,260.86a.5.5,0,0,0,0,1A.5.5,0,0,0,28.64,260.86Z"/><path class="cls-2" d="M38.05,264.16a.5.5,0,0,0,0,1A.5.5,0,0,0,38.05,264.16Z"/><path class="cls-2" d="M51.7,188.39a.5.5,0,0,0,0,1A.5.5,0,0,0,51.7,188.39Z"/><path class="cls-2" d="M90.29,227a.5.5,0,0,0,0,1A.5.5,0,0,0,90.29,227Z"/><path class="cls-2" d="M48.87,227a.5.5,0,0,0,0,1A.5.5,0,0,0,48.87,227Z"/><path class="cls-2" d="M10.76,187.45a.5.5,0,0,0,0,1A.5.5,0,0,0,10.76,187.45Z"/><path class="cls-2" d="M26.76,184.63a.5.5,0,0,0,0,1A.5.5,0,0,0,26.76,184.63Z"/><path class="cls-2" d="M39,146.51a.5.5,0,0,0,0,1A.5.5,0,0,0,39,146.51Z"/><path class="cls-2" d="M16.87,168.16a.5.5,0,0,0,0,1A.5.5,0,0,0,16.87,168.16Z"/><path class="cls-2" d="M10.29,250.51a.5.5,0,0,0,0,1A.5.5,0,0,0,10.29,250.51Z"/><path class="cls-2" d="M86.52,208.63a.5.5,0,0,0,0,1A.5.5,0,0,0,86.52,208.63Z"/><path class="cls-2" d="M98.76,254.74a.5.5,0,0,0,0,1A.5.5,0,0,0,98.76,254.74Z"/><path class="cls-2" d="M322,90.09a.5.5,0,0,0,0,1A.5.5,0,0,0,322,90.09Z"/><path class="cls-2" d="M345.08,80.68a.5.5,0,0,0,0,1A.5.5,0,0,0,345.08,80.68Z"/><path class="cls-2" d="M347.9,95.74a.5.5,0,0,0,0,1A.5.5,0,0,0,347.9,95.74Z"/><path class="cls-2" d="M351.19,93.38a.5.5,0,0,0,0,1A.5.5,0,0,0,351.19,93.38Z"/><path class="cls-2" d="M316.84,128.68a.5.5,0,0,0,0,1A.5.5,0,0,0,316.84,128.68Z"/><path class="cls-2" d="M321.55,7.27a.5.5,0,0,0,0,1A.5.5,0,0,0,321.55,7.27Z"/><path class="cls-2" d="M395.9,42.09a.5.5,0,0,0,0,1A.5.5,0,0,0,395.9,42.09Z"/><path class="cls-2" d="M359.19,27a.5.5,0,0,0,0,1A.5.5,0,0,0,359.19,27Z"/><path class="cls-2" d="M347.9,80.21a.5.5,0,0,0,0,1A.5.5,0,0,0,347.9,80.21Z"/><path class="cls-2" d="M372.37,123.5a.5.5,0,0,0,0,1A.5.5,0,0,0,372.37,123.5Z"/><path class="cls-2" d="M306.49,94.33a.5.5,0,0,0,0,1A.5.5,0,0,0,306.49,94.33Z"/><path class="cls-2" d="M334.72,50.56a.5.5,0,0,0,0,1A.5.5,0,0,0,334.72,50.56Z"/><path class="cls-2" d="M342.72,131.5a.5.5,0,0,0,0,1A.5.5,0,0,0,342.72,131.5Z"/><path class="cls-2" d="M114.15,49.83a.5.5,0,0,0,0,1A.5.5,0,0,0,114.15,49.83Z"/><path class="cls-2" d="M123.56,97.83a.5.5,0,0,0,0,1A.5.5,0,0,0,123.56,97.83Z"/><path class="cls-2" d="M183.8,93.59a.5.5,0,0,0,0,1A.5.5,0,0,0,183.8,93.59Z"/><path class="cls-2" d="M210.15,49.36a.5.5,0,0,0,0,1A.5.5,0,0,0,210.15,49.36Z"/><path class="cls-2" d="M172,134.53a.5.5,0,0,0,0,1A.5.5,0,0,0,172,134.53Z"/><path class="cls-2" d="M221.92,176.89a.5.5,0,0,0,0,1A.5.5,0,0,0,221.92,176.89Z"/><path class="cls-2" d="M123.56,231.48a.5.5,0,0,0,0,1A.5.5,0,0,0,123.56,231.48Z"/><path class="cls-2" d="M146.62,222.06a.5.5,0,0,0,0,1A.5.5,0,0,0,146.62,222.06Z"/><path class="cls-2" d="M149.45,237.12a.5.5,0,0,0,0,1A.5.5,0,0,0,149.45,237.12Z"/><path class="cls-2" d="M237.45,247a.5.5,0,0,0,0,1A.5.5,0,0,0,237.45,247Z"/><path class="cls-2" d="M262.39,249.36a.5.5,0,0,0,0,1A.5.5,0,0,0,262.39,249.36Z"/><path class="cls-2" d="M252,263.95a.5.5,0,0,0,0,1A.5.5,0,0,0,252,263.95Z"/><path class="cls-2" d="M152.74,234.77a.5.5,0,0,0,0,1A.5.5,0,0,0,152.74,234.77Z"/><path class="cls-2" d="M246.39,148.18a.5.5,0,0,0,0,1A.5.5,0,0,0,246.39,148.18Z"/><path class="cls-2" d="M272.27,154.77a.5.5,0,0,0,0,1A.5.5,0,0,0,272.27,154.77Z"/><path class="cls-2" d="M118.39,270.06a.5.5,0,0,0,0,1A.5.5,0,0,0,118.39,270.06Z"/><path class="cls-2" d="M123.09,148.65a.5.5,0,0,0,0,1A.5.5,0,0,0,123.09,148.65Z"/><path class="cls-2" d="M185.68,12.18a.5.5,0,0,0,0,1A.5.5,0,0,0,185.68,12.18Z"/><path class="cls-2" d="M212.5,6.53a.5.5,0,0,0,0,1A.5.5,0,0,0,212.5,6.53Z"/><path class="cls-2" d="M252,54.53a.5.5,0,0,0,0,1A.5.5,0,0,0,252,54.53Z"/><path class="cls-2" d="M278.39,39a.5.5,0,0,0,0,1A.5.5,0,0,0,278.39,39Z"/><path class="cls-2" d="M293,23.48a.5.5,0,0,0,0,1A.5.5,0,0,0,293,23.48Z"/><path class="cls-2" d="M265.68,102.53a.5.5,0,0,0,0,1A.5.5,0,0,0,265.68,102.53Z"/><path class="cls-2" d="M227.09,119.48a.5.5,0,0,0,0,1A.5.5,0,0,0,227.09,119.48Z"/><path class="cls-2" d="M236.5,122.77a.5.5,0,0,0,0,1A.5.5,0,0,0,236.5,122.77Z"/><path class="cls-2" d="M290.15,142.53a.5.5,0,0,0,0,1A.5.5,0,0,0,290.15,142.53Z"/><path class="cls-2" d="M197.45,183.48a.5.5,0,0,0,0,1A.5.5,0,0,0,197.45,183.48Z"/><path class="cls-2" d="M209.21,215.48a.5.5,0,0,0,0,1A.5.5,0,0,0,209.21,215.48Z"/><path class="cls-2" d="M143.8,136.89a.5.5,0,0,0,0,1A.5.5,0,0,0,143.8,136.89Z"/><path class="cls-2" d="M135.33,116.65a.5.5,0,0,0,0,1A.5.5,0,0,0,135.33,116.65Z"/><path class="cls-2" d="M166.86,88.42a.5.5,0,0,0,0,1A.5.5,0,0,0,166.86,88.42Z"/><path class="cls-2" d="M168.27,57.36a.5.5,0,0,0,0,1A.5.5,0,0,0,168.27,57.36Z"/><path class="cls-2" d="M102.86,60.65a.5.5,0,0,0,0,1A.5.5,0,0,0,102.86,60.65Z"/><path class="cls-2" d="M147.09,26.3a.5.5,0,0,0,0,1A.5.5,0,0,0,147.09,26.3Z"/><path class="cls-2" d="M250.15,47a.5.5,0,0,0,0,1A.5.5,0,0,0,250.15,47Z"/><path class="cls-2" d="M288.74,85.59a.5.5,0,0,0,0,1A.5.5,0,0,0,288.74,85.59Z"/><path class="cls-2" d="M247.33,85.59a.5.5,0,0,0,0,1A.5.5,0,0,0,247.33,85.59Z"/><path class="cls-2" d="M224.74,146.77a.5.5,0,0,0,0,1A.5.5,0,0,0,224.74,146.77Z"/><path class="cls-2" d="M160.74,168.42a.5.5,0,0,0,0,1A.5.5,0,0,0,160.74,168.42Z"/><path class="cls-2" d="M149.45,221.59a.5.5,0,0,0,0,1A.5.5,0,0,0,149.45,221.59Z"/><path class="cls-2" d="M173.92,264.89a.5.5,0,0,0,0,1A.5.5,0,0,0,173.92,264.89Z"/><path class="cls-2" d="M237.45,254.53a.5.5,0,0,0,0,1A.5.5,0,0,0,237.45,254.53Z"/><path class="cls-2" d="M280.27,227.71a.5.5,0,0,0,0,1A.5.5,0,0,0,280.27,227.71Z"/><path class="cls-2" d="M202.62,271a.5.5,0,0,0,0,1A.5.5,0,0,0,202.62,271Z"/><path class="cls-2" d="M108,235.71a.5.5,0,0,0,0,1A.5.5,0,0,0,108,235.71Z"/><path class="cls-2" d="M109.45,55.95a.5.5,0,0,0,0,1A.5.5,0,0,0,109.45,55.95Z"/><path class="cls-2" d="M110.39,11.24a.5.5,0,0,0,0,1A.5.5,0,0,0,110.39,11.24Z"/><path class="cls-2" d="M170.62,17.36a.5.5,0,0,0,0,1A.5.5,0,0,0,170.62,17.36Z"/><path class="cls-2" d="M209.21,46.06a.5.5,0,0,0,0,1A.5.5,0,0,0,209.21,46.06Z"/><path class="cls-2" d="M225.21,43.24a.5.5,0,0,0,0,1A.5.5,0,0,0,225.21,43.24Z"/><path class="cls-2" d="M237.45,5.12a.5.5,0,0,0,0,1A.5.5,0,0,0,237.45,5.12Z"/><path class="cls-2" d="M215.33,26.77a.5.5,0,0,0,0,1A.5.5,0,0,0,215.33,26.77Z"/><path class="cls-2" d="M208.74,109.12a.5.5,0,0,0,0,1A.5.5,0,0,0,208.74,109.12Z"/><path class="cls-2" d="M285,67.24a.5.5,0,0,0,0,1A.5.5,0,0,0,285,67.24Z"/><path class="cls-2" d="M214.86,163.24a.5.5,0,0,0,0,1A.5.5,0,0,0,214.86,163.24Z"/><path class="cls-2" d="M297.21,113.36a.5.5,0,0,0,0,1A.5.5,0,0,0,297.21,113.36Z"/><path class="cls-2" d="M136.27,191.95a.5.5,0,0,0,0,1A.5.5,0,0,0,136.27,191.95Z"/><path class="cls-2" d="M144.27,272.89a.5.5,0,0,0,0,1A.5.5,0,0,0,144.27,272.89Z"/><path class="cls-2" d="M218.15,233.83a.5.5,0,0,0,0,1A.5.5,0,0,0,218.15,233.83Z"/><path class="cls-2" d="M271.33,183a.5.5,0,0,0,0,1A.5.5,0,0,0,271.33,183Z"/><path class="cls-2" d="M124,81.83a.5.5,0,0,0,0,1A.5.5,0,0,0,124,81.83Z"/><path class="cls-2" d="M263.8,213.59a.5.5,0,0,0,0,1A.5.5,0,0,0,263.8,213.59Z"/><g class="cls-3"><path class="cls-2" d="M3.8,10.15,2.54,10,2,8.83,1.41,10l-1.26.18.45.44a.2.2,0,0,0-.09.16A.22.22,0,0,0,.72,11H1l.06.06L.85,12.3,2,11.71l1.13.59L2.89,11Z"/><polygon class="cls-2" points="39.43 57.1 38.17 56.92 37.6 55.77 37.04 56.92 35.78 57.1 36.69 57.99 36.47 59.25 37.6 58.65 38.73 59.25 38.52 57.99 39.43 57.1"/><path class="cls-2" d="M43.24,78.24l.19-.29a.22.22,0,0,0-.37-.24l-.09.13-.37-.76L42,78.23l-1.26.18.91.89-.22,1.26L42.6,80l1.13.59-.22-1.26.91-.89Z"/><polygon class="cls-2" points="52.48 37.1 53.61 36.51 54.74 37.1 54.52 35.84 55.44 34.95 54.17 34.77 53.61 33.63 53.05 34.77 51.78 34.95 52.7 35.84 52.48 37.1"/><path class="cls-2" d="M75.58,57.35a.21.21,0,0,0,0-.06.22.22,0,0,0-.28-.15l-.36.11-.42-.06L73.95,56l-.56,1.14-1.26.18.42.41-.67.11a.22.22,0,0,0,0,.44h0l1-.16.1.09-.22,1.26,1.13-.59,1.13.59-.22-1.26.91-.89Z"/><path class="cls-2" d="M88.44,52.49a.22.22,0,0,0-.1-.06h0l-.54-1.1-.56,1.14-1.26.18.91.89,0,.22a.22.22,0,0,0-.22-.06L85.46,54a.22.22,0,0,0,.06.43h.06l1.13-.34,0,0-.12.69,1.13-.59,1.13.59-.22-1.26.91-.89Z"/><polygon class="cls-2" points="92.16 43.35 90.9 43.17 90.33 42.03 89.77 43.17 88.51 43.35 89.42 44.24 89.2 45.5 90.33 44.91 91.46 45.5 91.25 44.24 92.16 43.35"/><path class="cls-2" d="M47.24,71.72a.22.22,0,0,0-.31.06l-.65,1a.22.22,0,0,0,.06.31.22.22,0,0,0,.12,0,.22.22,0,0,0,.19-.1l.65-1A.22.22,0,0,0,47.24,71.72Z"/><path class="cls-2" d="M48.54,69.75a.22.22,0,0,0-.31.06l-.65,1a.22.22,0,0,0,.06.31.22.22,0,0,0,.12,0A.22.22,0,0,0,48,71l.65-1A.22.22,0,0,0,48.54,69.75Z"/><path class="cls-2" d="M51.77,66.47a.22.22,0,0,0-.3-.07l-.95.58L50,65.84l-.52,1.06-.05-.06-.93-.73a.22.22,0,1,0-.27.35l.75.59-.8.12.91.89-.12.69-.05.08a.22.22,0,0,0,0,.23l0,.25.31-.17,0,0,.78-.41,1.13.59-.22-1.26.91-.89-.59-.09.5-.3A.22.22,0,0,0,51.77,66.47Z"/><path class="cls-2" d="M53.49,65.17l-1,.61a.22.22,0,1,0,.23.38l1-.61a.22.22,0,0,0-.23-.38Z"/><path class="cls-2" d="M46,73.7a.22.22,0,0,0-.31.06l-.65,1a.22.22,0,0,0,.06.31.22.22,0,0,0,.12,0,.22.22,0,0,0,.19-.1L46,74A.22.22,0,0,0,46,73.7Z"/><path class="cls-2" d="M89,49.41h.05a.22.22,0,0,0,.22-.17l.27-1.15a.22.22,0,1,0-.43-.1l-.27,1.15A.22.22,0,0,0,89,49.41Z"/><path class="cls-2" d="M55.5,63.95l-1,.61a.22.22,0,0,0,.23.38l1-.61a.22.22,0,0,0-.23-.38Z"/><path class="cls-2" d="M44.66,75.67a.22.22,0,0,0-.31.06l-.65,1a.22.22,0,0,0,.06.31.22.22,0,0,0,.12,0,.22.22,0,0,0,.19-.1l.65-1A.22.22,0,0,0,44.66,75.67Z"/><path class="cls-2" d="M88.5,51.71h.05a.22.22,0,0,0,.22-.17L89,50.39a.22.22,0,1,0-.43-.1l-.27,1.15A.22.22,0,0,0,88.5,51.71Z"/><path class="cls-2" d="M66.05,58.84,64.89,59a.21.21,0,0,0-.1.05l-1-.15-.56-1.14-.34.69h0a.22.22,0,0,0-.09.22l-.11.22-1.26.18.91.89-.22,1.26,1.13-.59,1.13.59L64.12,60l.64-.63a.21.21,0,0,0,.16.09h0l1.16-.19a.22.22,0,0,0-.07-.44Z"/><path class="cls-2" d="M79.82,55.77l-1.13.34a.22.22,0,0,0,.06.43h.06l1.13-.34a.22.22,0,1,0-.13-.42Z"/><path class="cls-2" d="M77.56,56.46l-1.13.34a.22.22,0,0,0,.06.43h.06l1.13-.34a.22.22,0,1,0-.13-.42Z"/><path class="cls-2" d="M70.71,58.09l-1.16.19a.22.22,0,0,0,0,.44h0l1.16-.19a.22.22,0,0,0,.18-.25A.22.22,0,0,0,70.71,58.09Z"/><path class="cls-2" d="M82.07,55.08l-1.13.34a.22.22,0,0,0,.06.43h.06l1.13-.34a.22.22,0,1,0-.13-.42Z"/><path class="cls-2" d="M89.93,45.53a.22.22,0,0,0-.27.17l-.27,1.15a.22.22,0,0,0,.17.27h.05a.22.22,0,0,0,.22-.17l.27-1.15A.22.22,0,0,0,89.93,45.53Z"/><path class="cls-2" d="M57.52,62.72l-1,.61a.22.22,0,1,0,.23.38l1-.61a.22.22,0,0,0-.23-.38Z"/><path class="cls-2" d="M84.33,54.39l-1.13.34a.22.22,0,0,0,.06.43h.06l1.13-.34a.22.22,0,1,0-.13-.42Z"/><path class="cls-2" d="M68.38,58.46l-1.16.19a.22.22,0,0,0,0,.44h0l1.16-.19a.22.22,0,0,0-.07-.44Z"/><path class="cls-2" d="M61.55,60.27l-1,.61a.22.22,0,1,0,.23.38l1-.61a.22.22,0,0,0-.23-.38Z"/><path class="cls-2" d="M59.54,61.49l-1,.61a.22.22,0,1,0,.23.38l1-.61a.22.22,0,0,0-.23-.38Z"/><path class="cls-2" d="M58.66,53l.69,1a.22.22,0,0,0,.18.09.22.22,0,0,0,.13,0,.22.22,0,0,0,.05-.31l-.69-1a.22.22,0,0,0-.36.26Z"/><path class="cls-2" d="M60.91,56A.22.22,0,0,0,61,56a.22.22,0,0,0,.05-.31l-.69-1A.22.22,0,0,0,60,55l.69,1A.22.22,0,0,0,60.91,56Z"/><path class="cls-2" d="M55.36,44.29l.25,1.15a.22.22,0,0,0,.22.18h0a.22.22,0,0,0,.17-.26l-.25-1.15a.22.22,0,1,0-.43.09Z"/><path class="cls-2" d="M62.1,57.83a.22.22,0,0,0,.18.09.22.22,0,0,0,.13,0,.22.22,0,0,0,.05-.31l-.69-1a.22.22,0,0,0-.36.26Z"/><path class="cls-2" d="M55,41.72a.22.22,0,0,0-.17.26l.25,1.15a.22.22,0,0,0,.22.18h0a.22.22,0,0,0,.17-.26l-.25-1.15A.22.22,0,0,0,55,41.72Z"/><path class="cls-2" d="M54.84,41h0a.22.22,0,0,0,.17-.26l-.25-1.15a.22.22,0,1,0-.43.09l.25,1.15A.22.22,0,0,0,54.84,41Z"/><path class="cls-2" d="M54.56,38.43l-.25-1.15a.22.22,0,1,0-.43.09l.25,1.15a.22.22,0,0,0,.22.18h0A.22.22,0,0,0,54.56,38.43Z"/><path class="cls-2" d="M55.85,46.6l.25,1.15a.22.22,0,0,0,.22.18h0a.22.22,0,0,0,.17-.26l-.25-1.15a.22.22,0,0,0-.26-.17A.22.22,0,0,0,55.85,46.6Z"/><path class="cls-2" d="M57.83,51.11l-.09-.55.91-.89-1.26-.18-.56-1.14-.16.33a.22.22,0,0,0-.31.24l.06.28-.15.3L55,49.67l.91.89-.22,1.26,1.13-.59.88.46.28.39a.22.22,0,0,0,.18.09.22.22,0,0,0,.13,0,.22.22,0,0,0,.05-.31Z"/><path class="cls-2" d="M41.83,61.39A.22.22,0,0,0,42,61L41,60.26a.22.22,0,1,0-.27.35l.93.73A.22.22,0,0,0,41.83,61.39Z"/><path class="cls-2" d="M39.19,58.8a.22.22,0,1,0-.27.35l.93.73a.22.22,0,1,0,.27-.35Z"/><path class="cls-2" d="M47.53,65.38l-.93-.73a.22.22,0,1,0-.27.35l.93.73a.22.22,0,1,0,.27-.35Z"/><path class="cls-2" d="M43.55,62.8a.22.22,0,1,0,.27-.35l-.93-.73a.22.22,0,1,0-.27.35Z"/><path class="cls-2" d="M45.4,64.26a.22.22,0,0,0,.27-.35l-.93-.73a.22.22,0,0,0-.27.35Z"/><path class="cls-2" d="M4.66,107.31l-1.26-.18L2.83,106l-.48,1-.1-.18a.22.22,0,0,0-.3-.09.22.22,0,0,0-.08.08l-.93-.3a.22.22,0,0,0-.28.14.22.22,0,0,0,.14.28l1,.31-.76.11.91.89-.22,1.26.21-.11-.29.47a.22.22,0,0,0,.07.3.22.22,0,0,0,.12,0A.22.22,0,0,0,2,110l.62-1a.22.22,0,0,0,0-.08l.19-.1,1.13.59-.22-1.26Z"/><path class="cls-2" d="M1.3,106a.22.22,0,0,0,.19.11l.11,0a.22.22,0,0,0,.09-.3l-.57-1a.22.22,0,1,0-.39.22Z"/><path class="cls-2" d="M1.31,110.75a.22.22,0,0,0-.3.07l-.62,1a.22.22,0,0,0,.07.3.22.22,0,0,0,.12,0,.22.22,0,0,0,.19-.11l.62-1A.22.22,0,0,0,1.31,110.75Z"/><path class="cls-2" d="M.54,103.68l-.57-1a.22.22,0,0,0-.3-.09.22.22,0,0,0-.09.3l.57,1a.22.22,0,0,0,.19.11l.11,0A.22.22,0,0,0,.54,103.68Z"/><path class="cls-2" d="M.07,112.76a.22.22,0,0,0-.3.07l-.62,1a.22.22,0,0,0,.07.3.22.22,0,0,0,.12,0,.22.22,0,0,0,.19-.11l.62-1A.22.22,0,0,0,.07,112.76Z"/><path class="cls-2" d="M23.46,35.5a.5.5,0,0,0,0,1A.5.5,0,0,0,23.46,35.5Z"/><path class="cls-2" d="M39,105.62a.5.5,0,0,0,0,1A.5.5,0,0,0,39,105.62Z"/><path class="cls-2" d="M63.93,108a.5.5,0,0,0,0,1A.5.5,0,0,0,63.93,108Z"/><path class="cls-2" d="M53.58,122.56a.5.5,0,0,0,0,1A.5.5,0,0,0,53.58,122.56Z"/><path class="cls-2" d="M47.93,6.8a.5.5,0,0,0,0,1A.5.5,0,0,0,47.93,6.8Z"/><path class="cls-2" d="M73.82,13.38a.5.5,0,0,0,0,1A.5.5,0,0,0,73.82,13.38Z"/><path class="cls-2" d="M91.7,1.15a.5.5,0,0,0,0,1A.5.5,0,0,0,91.7,1.15Z"/><path class="cls-2" d="M10.76,74.09a.5.5,0,0,0,0,1A.5.5,0,0,0,10.76,74.09Z"/><path class="cls-2" d="M26.29,5.38a.5.5,0,0,0,0,1A.5.5,0,0,0,26.29,5.38Z"/><path class="cls-2" d="M39,113.15a.5.5,0,0,0,0,1A.5.5,0,0,0,39,113.15Z"/><path class="cls-2" d="M81.82,86.33a.5.5,0,0,0,0,1A.5.5,0,0,0,81.82,86.33Z"/><path class="cls-2" d="M4.17,129.62a.5.5,0,0,0,0,1A.5.5,0,0,0,4.17,129.62Z"/><path class="cls-2" d="M16.4,21.85a.5.5,0,0,0,0,1A.5.5,0,0,0,16.4,21.85Z"/><path class="cls-2" d="M19.7,92.44a.5.5,0,0,0,0,1A.5.5,0,0,0,19.7,92.44Z"/><path class="cls-2" d="M72.87,41.62a.5.5,0,0,0,0,1A.5.5,0,0,0,72.87,41.62Z"/><path class="cls-2" d="M65.34,72.21a.5.5,0,0,0,0,1A.5.5,0,0,0,65.34,72.21Z"/></g></pattern></defs><title>stars</title><rect class="cls-4" width="499.92" height="500" transform="translate(499.92 500) rotate(180)"/><rect class="cls-5" width="499.92" height="500"/></svg>