<svg id="Layer_1" data-name="Layer 1" xmlns="http://www.w3.org/2000/svg" xmlns:xlink="http://www.w3.org/1999/xlink" viewBox="0 0 56.66 56.67"><defs><style>.cls-1{fill:url(#linear-gradient);}.cls-2{fill:url(#linear-gradient-2);}.cls-3{fill:url(#linear-gradient-3);}.cls-4{fill:url(#linear-gradient-4);}.cls-5{fill:url(#linear-gradient-5);}.cls-6{fill:url(#linear-gradient-6);}.cls-7{fill:url(#linear-gradient-7);}.cls-8{fill:url(#linear-gradient-8);}.cls-9{fill:url(#linear-gradient-9);}.cls-10{fill:url(#linear-gradient-10);}.cls-11{fill:url(#linear-gradient-11);}</style><linearGradient id="linear-gradient" x1="77.23" y1="90.32" x2="122.02" y2="133.21" gradientTransform="translate(54.59 -45.61) rotate(31.89)" gradientUnits="userSpaceOnUse"><stop offset="0" stop-color="#bbe2a1"/><stop offset="0.15" stop-color="#9ec399"/><stop offset="0.44" stop-color="#698c8c"/><stop offset="0.68" stop-color="#436482"/><stop offset="0.88" stop-color="#2c4b7c"/><stop offset="1" stop-color="#23427a"/></linearGradient><linearGradient id="linear-gradient-2" x1="82.46" y1="84.86" x2="127.25" y2="127.75" xlink:href="#linear-gradient"/><linearGradient id="linear-gradient-3" x1="129.01" y1="71.79" x2="68.01" y2="131.16" gradientTransform="translate(54.59 -45.61) rotate(31.89)" gradientUnits="userSpaceOnUse"><stop offset="0" stop-color="#bbe2a1"/><stop offset="0.12" stop-color="#9ec49a"/><stop offset="0.33" stop-color="#72968e"/><stop offset="0.52" stop-color="#507186"/><stop offset="0.71" stop-color="#37577f"/><stop offset="0.87" stop-color="#28487b"/><stop offset="1" stop-color="#23427a"/></linearGradient><linearGradient id="linear-gradient-4" x1="70.51" y1="97.34" x2="115.31" y2="140.23" xlink:href="#linear-gradient"/><linearGradient id="linear-gradient-5" x1="66.01" y1="146.79" x2="113.23" y2="109.96" xlink:href="#linear-gradient-3"/><linearGradient id="linear-gradient-6" x1="71.8" y1="107.55" x2="79.97" y2="115.38" gradientTransform="translate(54.59 -45.61) rotate(31.89)" gradientUnits="userSpaceOnUse"><stop offset="0" stop-color="#64868b"/><stop offset="0.33" stop-color="#597a88"/><stop offset="1" stop-color="#456683"/></linearGradient><linearGradient id="linear-gradient-7" x1="114.98" y1="105.15" x2="124.75" y2="114.5" gradientTransform="translate(54.59 -45.61) rotate(31.89)" gradientUnits="userSpaceOnUse"><stop offset="0.3" stop-color="#64868b"/><stop offset="0.53" stop-color="#597a88"/><stop offset="1" stop-color="#456683"/></linearGradient><linearGradient id="linear-gradient-8" x1="76.39" y1="99.42" x2="80.29" y2="103.15" xlink:href="#linear-gradient-6"/><linearGradient id="linear-gradient-9" x1="80.13" y1="117.31" x2="83.06" y2="120.12" xlink:href="#linear-gradient-6"/><linearGradient id="linear-gradient-10" x1="122.33" y1="137.77" x2="125.42" y2="140.73" gradientTransform="matrix(0.76, 0.65, -0.65, 0.76, 83.67, -61.32)" xlink:href="#linear-gradient-7"/><linearGradient id="linear-gradient-11" x1="115.77" y1="120.4" x2="117.83" y2="122.38" xlink:href="#linear-gradient-7"/></defs><title>2-mercury</title><path class="cls-1" d="M107.72,102.52c-4.52-6.46-24.59-9.37-33.62-4.43-10.12,5.54-12.85-6.18.21-16a24.27,24.27,0,0,1,22-3.71c-.26-.2-.52-.39-.8-.58A28.34,28.34,0,0,0,51.4,96.91c3-1.32,10.87,16.87,24.09,11.15,11.94-5.17,16.25-4.16,15.93,1.72-.27,4.93-15.07,20.5-29.8,13.4.54.44,1.09.86,1.67,1.26a28.33,28.33,0,0,0,44.43-21.92Z" transform="translate(-51.09 -72.81)"/><path class="cls-2" d="M74.32,82.14c-13.07,9.78-10.34,21.49-.21,16,9-4.94,29.09-2,33.62,4.43A28.31,28.31,0,0,0,96.35,78.43,24.27,24.27,0,0,0,74.32,82.14Z" transform="translate(-51.09 -72.81)"/><path class="cls-3" d="M74.32,82.14c-13.07,9.78-10.34,21.49-.21,16,9-4.94,29.09-2,33.62,4.43A28.31,28.31,0,0,0,96.35,78.43,24.27,24.27,0,0,0,74.32,82.14Z" transform="translate(-51.09 -72.81)"/><path class="cls-4" d="M91.42,109.78c.32-5.87-4-6.89-15.93-1.72-13.21,5.72-21-12.46-24.09-11.15a28.34,28.34,0,0,0,10.21,26.27C76.34,130.28,91.15,114.71,91.42,109.78Z" transform="translate(-51.09 -72.81)"/><path class="cls-5" d="M91.42,109.78c.32-5.87-4-6.89-15.93-1.72-13.21,5.72-21-12.46-24.09-11.15a28.34,28.34,0,0,0,10.21,26.27C76.34,130.28,91.15,114.71,91.42,109.78Z" transform="translate(-51.09 -72.81)"/><path class="cls-6" d="M62.08,84.24c-1-3.15-5.27,3.1-4.91,5.45s1.1,5.54,2.58,4.64S63.51,88.77,62.08,84.24Z" transform="translate(-51.09 -72.81)"/><path class="cls-7" d="M98.32,106.48c-1.31,3-6.51,11.43-3.86,11.56s9.49-7.45,8.77-12.15S99.05,104.82,98.32,106.48Z" transform="translate(-51.09 -72.81)"/><path class="cls-8" d="M66.34,80.81c-1.52,1.59-2.29,4.65-.95,4a18.48,18.48,0,0,0,4.94-4.52C71.14,78.95,69.8,77.2,66.34,80.81Z" transform="translate(-51.09 -72.81)"/><path class="cls-9" d="M61.06,96.46c-3.63-.06-2,4.9.63,3.47S63.34,96.5,61.06,96.46Z" transform="translate(-51.09 -72.81)"/><path class="cls-10" d="M90.42,122.89c-1.08-.41-1.71.13-3.32.81s-4.63,1.64-4.16,2.44C84.73,129.18,93.7,124.12,90.42,122.89Z" transform="translate(-51.09 -72.81)"/><path class="cls-11" d="M87.4,120.49a2.93,2.93,0,0,0,2.48-.22c1-.61,2.78-2.72,1.65-2.92S86.49,120.34,87.4,120.49Z" transform="translate(-51.09 -72.81)"/></svg>