<svg id="Layer_1" data-name="Layer 1" xmlns="http://www.w3.org/2000/svg" xmlns:xlink="http://www.w3.org/1999/xlink" viewBox="0 0 67.35 63.09"><defs><style>.cls-1{fill:none;}.cls-2{fill:url(#linear-gradient);}.cls-3{clip-path:url(#clip-path);}.cls-4{fill:url(#linear-gradient-2);}.cls-5,.cls-7,.cls-8{opacity:0.38;}.cls-5{fill:url(#linear-gradient-3);}.cls-6{fill:url(#linear-gradient-4);}.cls-7{fill:url(#linear-gradient-5);}.cls-8{fill:url(#linear-gradient-6);}</style><linearGradient id="linear-gradient" x1="80.77" y1="31.87" x2="53.34" y2="-17.5" gradientTransform="translate(34.96 -38.44) rotate(90)" gradientUnits="userSpaceOnUse"><stop offset="0" stop-color="#3965b4"/><stop offset="1" stop-color="#58bef8"/></linearGradient><clipPath id="clip-path" transform="translate(5.58 4.37)"><circle id="SVGID" class="cls-1" cx="28.42" cy="28.25" r="28.23" transform="matrix(0.28, -0.96, 0.96, 0.28, -6.6, 47.72)"/></clipPath><linearGradient id="linear-gradient-2" x1="32.45" y1="35.75" x2="78.56" y2="35.75" gradientTransform="translate(10.01 -26.37) rotate(31.89)" gradientUnits="userSpaceOnUse"><stop offset="0" stop-color="#90d25f"/><stop offset="0.99" stop-color="#548b46"/></linearGradient><linearGradient id="linear-gradient-3" x1="40.53" y1="42.33" x2="79.61" y2="42.33" gradientTransform="translate(10.01 -26.37) rotate(31.89)" gradientUnits="userSpaceOnUse"><stop offset="0" stop-color="#fff" stop-opacity="0"/><stop offset="0.13" stop-color="#fff" stop-opacity="0.2"/><stop offset="0.31" stop-color="#fff" stop-opacity="0.44"/><stop offset="0.48" stop-color="#fff" stop-opacity="0.64"/><stop offset="0.64" stop-color="#fff" stop-opacity="0.79"/><stop offset="0.78" stop-color="#fff" stop-opacity="0.91"/><stop offset="0.91" stop-color="#fff" stop-opacity="0.98"/><stop offset="1" stop-color="#fff"/></linearGradient><linearGradient id="linear-gradient-4" x1="4.65" y1="41.64" x2="42.17" y2="41.64" gradientTransform="translate(10.01 -26.37) rotate(31.89)" gradientUnits="userSpaceOnUse"><stop offset="0" stop-color="#90d25f"/><stop offset="0.7" stop-color="#66a14e"/><stop offset="0.99" stop-color="#548b46"/></linearGradient><linearGradient id="linear-gradient-5" x1="11.88" y1="30.97" x2="53.99" y2="30.97" xlink:href="#linear-gradient-3"/><linearGradient id="linear-gradient-6" x1="33.24" y1="31.63" x2="63.77" y2="31.63" xlink:href="#linear-gradient-3"/></defs><title>3-earth</title><circle class="cls-2" cx="28.42" cy="28.25" r="28.23" transform="matrix(0.28, -0.96, 0.96, 0.28, -1.03, 52.09)"/><g class="cls-3"><path class="cls-4" d="M54,14.87c-2.47-5.14-8.65,1.71-6.29,13.42,1,4.87-11.58,2.15-17.4.27-3.42-1.1-8.28,3.53-1.47,6.59a27.89,27.89,0,0,0,7.42,2.37A1,1,0,0,1,37,39.07a2.73,2.73,0,0,0-.68,2.34c.55,1.76,4.87-2.15,5.57-2.89s5.1-.85,5.1-.85S44.5,44.55,27.79,53.44c-3.89,2.07,4.39,5.73,13.84.19C53.09,46.92,63.51,34.54,54,14.87Z" transform="translate(5.58 4.37)"/><path class="cls-5" d="M60.28,29.75S41.66,44.46,23.66,39.89s-8.09,26.7,18.83,16.93S60.28,29.75,60.28,29.75Z" transform="translate(5.58 4.37)"/><path class="cls-6" d="M20.55.32c1,.6,1,2.44,4.22,5S31.42,9.33,28,11a21.93,21.93,0,0,1-8,2.23c-3,.41-1.07,1.73-5.23.94s-5.81-2-7.32.69S4.8,17.93,5.81,20.65s5.13,2.59,7.11,5.18,3.87,2,1.6,6.09-2.33,2.3-3.71,5.48-2,.56-2.36,4.52,2.17,6.14-.42,6.93-3.9-.48-6.55-5.12-6.56-20.26,2.73-32.3S20.55.32,20.55.32Z" transform="translate(5.58 4.37)"/><path class="cls-7" d="M11.27,2.33C16.84-1,29.73-8.68,42.85-1.22S50,17.69,39.58,17.35,6.32,20.57,0,31.09-12.06,16.23,11.27,2.33Z" transform="translate(5.58 4.37)"/><path class="cls-8" d="M42.11,25.08c-17,11.21-29.2.66-27.44,5.07s12.4,6.27,22.52,3.33,17.76-7.38,16.73-11.81S46.37,22.27,42.11,25.08Z" transform="translate(5.58 4.37)"/></g></svg>