<svg id="Layer_1" data-name="Layer 1" xmlns="http://www.w3.org/2000/svg" xmlns:xlink="http://www.w3.org/1999/xlink" viewBox="0 0 56.01 56.01"><defs><style>.cls-1{fill:url(#linear-gradient);}.cls-2{fill:url(#linear-gradient-2);}.cls-3{fill:url(#linear-gradient-3);}.cls-4{fill:url(#linear-gradient-4);}.cls-5{fill:url(#linear-gradient-5);}.cls-6{fill:url(#linear-gradient-6);}.cls-7{fill:url(#linear-gradient-7);}</style><linearGradient id="linear-gradient" x1="96.27" y1="124.94" x2="69.06" y2="75.96" gradientTransform="translate(-6.74 2.26)" gradientUnits="userSpaceOnUse"><stop offset="0.03" stop-color="#453343"/><stop offset="0.84" stop-color="#ca5e43"/></linearGradient><linearGradient id="linear-gradient-2" x1="115.21" y1="71.42" x2="62.65" y2="78.79" gradientTransform="translate(-6.74 2.26)" gradientUnits="userSpaceOnUse"><stop offset="0" stop-color="#7d413c"/><stop offset="0.18" stop-color="#8c534c"/><stop offset="0.54" stop-color="#b38376"/><stop offset="1" stop-color="#edcab3"/></linearGradient><linearGradient id="linear-gradient-3" x1="97.72" y1="124.13" x2="70.51" y2="75.16" gradientTransform="translate(-6.74 2.26)" gradientUnits="userSpaceOnUse"><stop offset="0.04" stop-color="#7d413c"/><stop offset="0.16" stop-color="#905951"/><stop offset="0.43" stop-color="#b8897b"/><stop offset="0.68" stop-color="#d5ad99"/><stop offset="0.87" stop-color="#e7c2ac"/><stop offset="1" stop-color="#edcab3"/></linearGradient><linearGradient id="linear-gradient-4" x1="95.39" y1="125.42" x2="68.18" y2="76.45" gradientTransform="translate(-6.74 2.26)" gradientUnits="userSpaceOnUse"><stop offset="0" stop-color="#7d413c"/><stop offset="0.16" stop-color="#a26f64"/><stop offset="0.33" stop-color="#c39686"/><stop offset="0.49" stop-color="#dab39f"/><stop offset="0.62" stop-color="#e8c4ae"/><stop offset="0.72" stop-color="#edcab3"/></linearGradient><linearGradient id="linear-gradient-5" x1="123.74" y1="84.8" x2="58.7" y2="82.35" gradientTransform="translate(-6.74 2.26)" gradientUnits="userSpaceOnUse"><stop offset="0.15" stop-color="#5a3649"/><stop offset="0.29" stop-color="#6a5363"/><stop offset="0.58" stop-color="#939ca5"/><stop offset="0.96" stop-color="#cbffff"/></linearGradient><linearGradient id="linear-gradient-6" x1="114.9" y1="99.97" x2="55.64" y2="90.23" gradientTransform="translate(-6.74 2.26)" gradientUnits="userSpaceOnUse"><stop offset="0.03" stop-color="#4d2e43"/><stop offset="1" stop-color="#ca5e43"/></linearGradient><linearGradient id="linear-gradient-7" x1="123.22" y1="113.78" x2="48.01" y2="93.9" xlink:href="#linear-gradient-5"/></defs><title>5-jupiter</title><path class="cls-1" d="M95.19,112.28c-4.43-2.74-7.8,1.69-12,4-3.7,2-13.91,3.59-21.63,4.65a28.11,28.11,0,0,0,2.35,1.82c6.05-1.29,16.88-3.42,19.28-2.67,3.37,1.05,7.17,3.16,12.87-1.48a21.13,21.13,0,0,1,7.42-3.91,27.93,27.93,0,0,0,1.8-3.31C102.54,112.61,98.1,114.08,95.19,112.28Z" transform="translate(-51.8 -71.7)"/><path class="cls-2" d="M86.12,81.7a41.63,41.63,0,0,1,12.21-3,28,28,0,0,0-41,4.31C65.38,86.63,76.59,85.32,86.12,81.7Z" transform="translate(-51.8 -71.7)"/><path class="cls-3" d="M91.61,104.27c-12,1.5-23.19,10.34-36.05,9.45a28.13,28.13,0,0,0,6,7.22c7.72-1.06,17.92-2.61,21.63-4.65,4.22-2.32,7.59-6.75,12-4,2.9,1.8,7.35.33,10.07-.89a27.79,27.79,0,0,0,2.09-6.62C104.74,104,99.81,103.24,91.61,104.27Z" transform="translate(-51.8 -71.7)"/><path class="cls-4" d="M83.17,120.08c-2.4-.75-13.22,1.38-19.28,2.67a28,28,0,0,0,39.56-8.06A21.13,21.13,0,0,0,96,118.61C90.34,123.25,86.55,121.14,83.17,120.08Z" transform="translate(-51.8 -71.7)"/><path class="cls-5" d="M98.34,78.72a41.63,41.63,0,0,0-12.21,3C76.59,85.32,65.38,86.63,57.31,83a28,28,0,0,0-3.53,6.33c11.13,7.77,36.43-.52,48.58,2.47a10.86,10.86,0,0,1,4.93,2.51A28,28,0,0,0,98.34,78.72Z" transform="translate(-51.8 -71.7)"/><path class="cls-6" d="M53.78,89.36a27.92,27.92,0,0,0-2,10.35c0,.85,0,1.69.12,2.52,13.9,5,45.93-9.09,55.87-1.58,0-.32,0-.63,0-.95a28.13,28.13,0,0,0-.52-5.37,10.86,10.86,0,0,0-4.93-2.51C90.22,88.84,64.91,97.12,53.78,89.36Z" transform="translate(-51.8 -71.7)"/><path class="cls-7" d="M51.92,102.23a27.82,27.82,0,0,0,3.64,11.48c12.87.89,24-7.95,36.05-9.45,8.21-1,13.13-.26,15.74.5a28.09,28.09,0,0,0,.44-4.11C97.84,93.15,65.82,107.24,51.92,102.23Z" transform="translate(-51.8 -71.7)"/></svg>