<svg id="Layer_1" data-name="Layer 1" xmlns="http://www.w3.org/2000/svg" xmlns:xlink="http://www.w3.org/1999/xlink" viewBox="0 0 56.45 56.45"><defs><style>.cls-1{fill:url(#linear-gradient);}.cls-2{fill:url(#linear-gradient-2);}.cls-3{fill:url(#linear-gradient-3);}.cls-4{fill:url(#linear-gradient-4);}.cls-5{fill:url(#linear-gradient-5);}.cls-6,.cls-7{opacity:0.79;}.cls-6{fill:url(#linear-gradient-6);}.cls-7{fill:url(#linear-gradient-7);}</style><linearGradient id="linear-gradient" x1="111.46" y1="130.65" x2="81.08" y2="83.07" gradientTransform="translate(-16.48 -10.39)" gradientUnits="userSpaceOnUse"><stop offset="0" stop-color="#831d57"/><stop offset="0.66" stop-color="#ff636f"/><stop offset="1" stop-color="#f086a5"/></linearGradient><linearGradient id="linear-gradient-2" x1="95.03" y1="141.15" x2="64.64" y2="93.57" xlink:href="#linear-gradient"/><linearGradient id="linear-gradient-3" x1="96.51" y1="143.47" x2="71.5" y2="104.31" gradientTransform="translate(-16.48 -10.39)" gradientUnits="userSpaceOnUse"><stop offset="0" stop-color="#d35781"/><stop offset="0.33" stop-color="#bd4973"/><stop offset="1" stop-color="#942f57"/></linearGradient><linearGradient id="linear-gradient-4" x1="127" y1="120.73" x2="96.61" y2="73.15" xlink:href="#linear-gradient"/><linearGradient id="linear-gradient-5" x1="119.76" y1="109.39" x2="99.46" y2="77.61" xlink:href="#linear-gradient-3"/><linearGradient id="linear-gradient-6" x1="104.98" y1="103.52" x2="98.56" y2="93.48" gradientTransform="translate(-16.48 -10.39)" gradientUnits="userSpaceOnUse"><stop offset="0" stop-color="#d35781" stop-opacity="0"/><stop offset="0.01" stop-color="#d25780" stop-opacity="0.01"/><stop offset="0.69" stop-color="#a63a63" stop-opacity="0.72"/><stop offset="1" stop-color="#942f57"/></linearGradient><linearGradient id="linear-gradient-7" x1="105.74" y1="132.22" x2="91.82" y2="110.43" xlink:href="#linear-gradient-6"/></defs><title>2-venus</title><path class="cls-1" d="M83,68.46c-.74-.06-1.48-.1-2.23-.1a28.22,28.22,0,0,0-24.39,42.43c-1.57-9.16.53-18.8,4.83-20,4.87-1.41,4.09,26.49,17.79,34,.59,0,1.18.06,1.77.06a28.22,28.22,0,0,0,27.5-34.59c-6.24-6.11-25-7-30.74-12.26C73.44,74.21,77.36,70.2,83,68.46Z" transform="translate(-52.59 -68.36)"/><path class="cls-2" d="M61.26,90.75c-4.29,1.25-6.4,10.88-4.83,20a28.21,28.21,0,0,0,22.62,14C65.35,117.25,66.12,89.34,61.26,90.75Z" transform="translate(-52.59 -68.36)"/><path class="cls-3" d="M61.26,90.75c-4.29,1.25-6.4,10.88-4.83,20a28.21,28.21,0,0,0,22.62,14C65.35,117.25,66.12,89.34,61.26,90.75Z" transform="translate(-52.59 -68.36)"/><path class="cls-4" d="M83,68.46c-5.69,1.74-9.61,5.75-5.48,9.51,5.78,5.26,24.5,6.14,30.74,12.26A28.23,28.23,0,0,0,83,68.46Z" transform="translate(-52.59 -68.36)"/><path class="cls-5" d="M83,68.46c-5.69,1.74-9.61,5.75-5.48,9.51,5.78,5.26,24.5,6.14,30.74,12.26A28.23,28.23,0,0,0,83,68.46Z" transform="translate(-52.59 -68.36)"/><path class="cls-6" d="M89.85,87.89c-3.56-2.18-6.35-2-8.14-3.37s-4,2.38,0,4.76S93.42,90.07,89.85,87.89Z" transform="translate(-52.59 -68.36)"/><path class="cls-7" d="M82.31,118.25c6.18,2.16,10.92-5.16,7.54-7.14s-9.53-5.76-12.3-10.52S69.8,113.89,82.31,118.25Z" transform="translate(-52.59 -68.36)"/></svg>