<svg id="Layer_1" data-name="Layer 1" xmlns="http://www.w3.org/2000/svg" xmlns:xlink="http://www.w3.org/1999/xlink" viewBox="0 0 110 61.79"><defs><style>.cls-1{fill:url(#linear-gradient);}.cls-2{fill:url(#linear-gradient-2);}.cls-3{fill:url(#linear-gradient-3);}.cls-4{fill:url(#linear-gradient-4);}.cls-5{fill:url(#linear-gradient-5);}.cls-6{fill:url(#linear-gradient-6);}.cls-7{fill:url(#linear-gradient-7);}.cls-8{fill:url(#linear-gradient-8);}.cls-9{fill:url(#linear-gradient-9);}.cls-10{fill:url(#linear-gradient-10);}.cls-11{fill:url(#linear-gradient-11);}.cls-12{fill:url(#linear-gradient-12);}.cls-13{fill:url(#linear-gradient-13);}.cls-14{fill:url(#linear-gradient-14);}.cls-15{fill:url(#linear-gradient-15);}</style><linearGradient id="linear-gradient" x1="68.29" y1="637.64" x2="25.21" y2="602.06" gradientTransform="translate(34.21 -531.53)" gradientUnits="userSpaceOnUse"><stop offset="0" stop-color="#c19c77"/><stop offset="0.58" stop-color="#d4bb94"/><stop offset="1" stop-color="#e3d4ab"/></linearGradient><linearGradient id="linear-gradient-2" x1="78.14" y1="587.18" x2="4.01" y2="630.82" gradientTransform="translate(34.21 -531.53)" gradientUnits="userSpaceOnUse"><stop offset="0" stop-color="#d0ad91"/><stop offset="1" stop-color="#a78266"/></linearGradient><linearGradient id="linear-gradient-3" x1="70.41" y1="635.06" x2="27.33" y2="599.49" xlink:href="#linear-gradient"/><linearGradient id="linear-gradient-4" x1="15.17" y1="613.19" x2="47.31" y2="596.78" gradientTransform="translate(34.21 -531.53)" gradientUnits="userSpaceOnUse"><stop offset="0.11" stop-color="#d0ad91"/><stop offset="0.9" stop-color="#c19c77"/></linearGradient><linearGradient id="linear-gradient-5" x1="62.85" y1="603.67" x2="2.46" y2="647.1" gradientTransform="translate(34.21 -531.53)" gradientUnits="userSpaceOnUse"><stop offset="0.08" stop-color="#a77e50"/><stop offset="1" stop-color="#d0ad91"/></linearGradient><linearGradient id="linear-gradient-6" x1="66.03" y1="640.38" x2="22.94" y2="604.8" xlink:href="#linear-gradient"/><linearGradient id="linear-gradient-7" x1="63.24" y1="643.74" x2="20.16" y2="608.17" xlink:href="#linear-gradient-5"/><linearGradient id="linear-gradient-8" x1="62.38" y1="644.79" x2="19.3" y2="609.22" xlink:href="#linear-gradient"/><linearGradient id="linear-gradient-9" x1="64.12" y1="642.68" x2="21.04" y2="607.11" xlink:href="#linear-gradient"/><linearGradient id="linear-gradient-10" x1="60.44" y1="647.14" x2="17.36" y2="611.57" xlink:href="#linear-gradient"/><linearGradient id="linear-gradient-11" x1="61.8" y1="645.5" x2="18.71" y2="609.92" xlink:href="#linear-gradient-5"/><linearGradient id="linear-gradient-12" x1="-17.81" y1="653.37" x2="101.49" y2="599.2" gradientTransform="translate(34.21 -531.53)" gradientUnits="userSpaceOnUse"><stop offset="0" stop-color="#a08747"/><stop offset="0.63" stop-color="#7c5b30"/><stop offset="1" stop-color="#553e2a"/></linearGradient><linearGradient id="linear-gradient-13" x1="1.53" y1="643.26" x2="1.65" y2="643.26" gradientTransform="translate(34.21 -531.53)" gradientUnits="userSpaceOnUse"><stop offset="0" stop-color="#a08747"/><stop offset="0.47" stop-color="#7c5b30"/><stop offset="0.88" stop-color="#553e2a"/></linearGradient><linearGradient id="linear-gradient-14" x1="1.22" y1="625.64" x2="79.22" y2="625.64" xlink:href="#linear-gradient-13"/><linearGradient id="linear-gradient-15" x1="-13.13" y1="625.89" x2="96.87" y2="625.89" xlink:href="#linear-gradient-13"/></defs><title>6-saturn</title><path class="cls-1" d="M70.54,78.5c9-5.08,14.09-8.61,16.71-11a27.82,27.82,0,0,0-4.94-1.66c-2.19,4.37-27,15.74-31.51,16.64a5.18,5.18,0,0,1-.92.11,27.82,27.82,0,0,0-1.5,4.93C51.18,87.9,57.52,85.89,70.54,78.5Z" transform="translate(-21.07 -63.47)"/><path class="cls-2" d="M94,71.69a28,28,0,0,0-6.72-4.22c-2.62,2.42-7.76,5.95-16.71,11-13,7.39-19.36,9.4-22.15,9A28.17,28.17,0,0,0,47.83,93l.65-.06C52.56,92.43,85,79.47,94,71.69Z" transform="translate(-21.07 -63.47)"/><path class="cls-3" d="M77.18,65.09c-.43,0-.87,0-1.31,0A28,28,0,0,0,53.08,76.77C57.22,75.6,75.43,67.09,77.18,65.09Z" transform="translate(-21.07 -63.47)"/><path class="cls-4" d="M82.32,65.81a28,28,0,0,0-5.14-.72c-1.76,2-20,10.52-24.1,11.68a28,28,0,0,0-3.2,5.79,5.18,5.18,0,0,0,.92-.11C55.3,81.55,80.13,70.18,82.32,65.81Z" transform="translate(-21.07 -63.47)"/><path class="cls-5" d="M66.26,101.95c3.94-2.23,27.45-15.79,32.8-24.62A28.16,28.16,0,0,0,96.41,74a142.57,142.57,0,0,1-11.5,9.59C70.26,94.84,55.11,97.91,48.25,97.92a27.83,27.83,0,0,0,2,6.54C54.21,104.9,62.74,103.94,66.26,101.95Z" transform="translate(-21.07 -63.47)"/><path class="cls-6" d="M84.9,83.59A142.57,142.57,0,0,0,96.41,74,28.21,28.21,0,0,0,94,71.69c-9,7.77-41.42,20.74-45.5,21.22l-.65.06s0,.09,0,.13a28.19,28.19,0,0,0,.42,4.82C55.11,97.91,70.26,94.84,84.9,83.59Z" transform="translate(-21.07 -63.47)"/><path class="cls-7" d="M70,111c5-1.19,27.21-8.34,32.73-25.94a27.86,27.86,0,0,0-1.7-4.32c-2.45,7-17,13.72-31.7,23.76-5.51,3.75-13.61,3.67-17.88,2.4a28.13,28.13,0,0,0,2.93,4.23C58.56,112.42,65.77,112,70,111Z" transform="translate(-21.07 -63.47)"/><path class="cls-8" d="M80.08,111.65c13-6.14,20.45-13.76,23.38-23.59a27.84,27.84,0,0,0-.72-3C97.22,102.64,75,109.79,70,111c-4.23,1-11.44,1.44-15.61.14a28.21,28.21,0,0,0,4.76,4.49C62.81,116.15,69.6,116.59,80.08,111.65Z" transform="translate(-21.07 -63.47)"/><path class="cls-9" d="M69.34,104.49c14.75-10,29.24-16.8,31.7-23.76a28.05,28.05,0,0,0-2-3.4c-5.36,8.83-28.86,22.39-32.8,24.62-3.52,2-12,3-16,2.51.37.83.78,1.64,1.23,2.43C55.74,108.15,63.83,108.24,69.34,104.49Z" transform="translate(-21.07 -63.47)"/><path class="cls-10" d="M92.55,111.51c-11.91,7.49-19.72,9-27.12,7.62a28,28,0,0,0,38.38-23.6C102.19,100.87,99,107.48,92.55,111.51Z" transform="translate(-21.07 -63.47)"/><path class="cls-11" d="M103.46,88.06c-2.93,9.83-10.37,17.45-23.38,23.59-10.48,4.94-17.27,4.5-20.93,4a28,28,0,0,0,6.28,3.52c7.4,1.41,15.2-.13,27.12-7.62,6.42-4,9.65-10.64,11.26-16,.07-.8.11-1.61.11-2.43A28.17,28.17,0,0,0,103.46,88.06Z" transform="translate(-21.07 -63.47)"/><path class="cls-12" d="M128.34,69.8a4.93,4.93,0,0,0-.82-2,5.19,5.19,0,0,0-1.3-1.28,6,6,0,0,0-.63-.38,5.18,5.18,0,0,0-.86-.35,6.67,6.67,0,0,0-2.38-.24,13.57,13.57,0,0,0-1.69.22,24.62,24.62,0,0,0-2.88.75,68.8,68.8,0,0,0-10.09,4.31,92.21,92.21,0,0,0-9.34,5.4l.3.68c3.49-.81,6.93-1.7,10.35-2.55s6.85-1.66,10.12-2.17l.64-.08c-.7.62-1.5,1.25-2.3,1.86-1.32,1-2.7,1.95-4.11,2.89-5.69,3.76-11.6,7.51-17.6,11.12-3,1.81-6.06,3.53-9.07,5.36l-9,5.51c-3,1.82-6.09,3.6-9.25,5.2a104.09,104.09,0,0,1-9.67,4.31c-6.57,2.55-13.59,4.06-20.32,5.47-1.68.35-3.34.69-4.95,1-.8.14-1.59.24-2.32.33l-.46,0a13.47,13.47,0,0,1,2.07-3.06,54,54,0,0,1,7.42-6.7c2.73-2.13,5.6-4.19,8.5-6.31l-.29-.68A50.06,50.06,0,0,0,38,101.95a47.7,47.7,0,0,0-4.88,2.62A31.67,31.67,0,0,0,28.55,108a19.6,19.6,0,0,0-2.11,2.23,13.38,13.38,0,0,0-1.8,2.84,10.76,10.76,0,0,0-.64,1.76,9.41,9.41,0,0,0-.21,1c0,.16,0,.34-.07.51l0,.26c0,.15,0,.29,0,.45a4.65,4.65,0,0,0,.56,2.11,4.7,4.7,0,0,0,1.48,1.62,6.36,6.36,0,0,0,2.58,1,13,13,0,0,0,3.49,0,24.51,24.51,0,0,0,2.92-.49,42.36,42.36,0,0,0,5.35-1.62,104.37,104.37,0,0,0,9.9-4.46c3.21-1.61,6.4-3.19,9.64-4.66s6.51-2.83,9.81-4.15,6.66-2.52,10-3.76,6.7-2.5,10-3.91,6.5-3,9.71-4.55a135.12,135.12,0,0,0,18.74-10.81c1.49-1.08,3-2.19,4.4-3.45a28.9,28.9,0,0,0,4.23-4.35,12.89,12.89,0,0,0,1-1.56,7.47,7.47,0,0,0,.85-2.36A5.49,5.49,0,0,0,128.34,69.8Zm-5.7,2.26-.22-.08C122.65,72,122.86,72.08,122.63,72.05Z" transform="translate(-21.07 -63.47)"/><path class="cls-13" d="M35.85,111.71c-.13,0-.17,0,0,0h0Z" transform="translate(-21.07 -63.47)"/><path class="cls-14" d="M110.7,75.36c-1.91.27-3.8.58-5.68,1a36.39,36.39,0,0,0-5.53,1.59l.06.18c.92-.23,1.86-.41,2.79-.57s1.88-.27,2.82-.38,1.9-.22,2.85-.31c-6.49,3.71-12.88,7.55-19.21,11.48-3.56,2.21-7.15,4.38-10.72,6.56s-7.16,4.36-10.84,6.37a83.17,83.17,0,0,1-11.42,5.2q-3,1.06-6,1.94-1.5.44-3,.84c-1,.28-2,.54-3,.79q-2.64.67-5.31,1.2L40,109.78q2.23-2.21,4.49-4.39c1.5-1.46,3-2.91,4.61-4.27l-.11-.15A85.33,85.33,0,0,0,39,108.78q-1.18,1.05-2.34,2.13l-.58.55-.25.25.13,0-.14.06,0,0-.07,0-.17.19,0,.06s-.07-.08-.15.5,1.78.86,1.18.67l.64-.11.78-.13a60.82,60.82,0,0,0,6.22-1.34c1-.28,2-.59,3-.92s2-.7,3-1.07q3-1.12,5.85-2.41c3.85-1.71,7.65-3.5,11.43-5.35q2.84-1.36,5.66-2.79c1.88-1,3.76-1.9,5.6-2.91,3.71-2,7.34-4.1,11-6.22s7.2-4.32,10.75-6.56,7.07-4.53,10.56-6.85L113.42,75ZM36.89,112.87h0Zm-.23.25h0Zm.19-.21h0Z" transform="translate(-21.07 -63.47)"/><path class="cls-15" d="M29.6,125.26a10.61,10.61,0,0,1-4.81-1,6.88,6.88,0,0,1-3.65-5.82C20.44,112,24.88,106.08,34,101.29A68.33,68.33,0,0,1,48,96l.14.6c-.28.07-28,6.87-26.37,21.84a6.3,6.3,0,0,0,3.31,5.34c2.66,1.35,11.44,3,35.51-10.85,2.57-1.48,7.87-3.62,14.57-6.33,21.58-8.71,57.71-23.3,55.18-37.7a5.11,5.11,0,0,0-3-4.14C119,61,97.21,74.68,97,74.82l-.33-.52a116.41,116.41,0,0,1,12.14-6.5c8.82-4,15.14-5.25,18.78-3.64a5.76,5.76,0,0,1,3.37,4.6c2.61,14.89-33.8,29.59-55.55,38.38-6.68,2.7-12,4.83-14.5,6.29C54.09,117.33,39.12,125.26,29.6,125.26Z" transform="translate(-21.07 -63.47)"/></svg>