<svg id="Layer_1" data-name="Layer 1" xmlns="http://www.w3.org/2000/svg" xmlns:xlink="http://www.w3.org/1999/xlink" viewBox="0 0 82.86 75.91"><defs><style>.cls-1{fill:url(#linear-gradient);}.cls-2{fill:url(#linear-gradient-2);}.cls-3{fill:url(#linear-gradient-3);}.cls-4{fill:url(#linear-gradient-4);}.cls-5{fill:url(#linear-gradient-5);}.cls-6{fill:url(#linear-gradient-6);}.cls-7{fill:url(#linear-gradient-7);}.cls-8{fill:url(#linear-gradient-8);}.cls-9{fill:url(#linear-gradient-9);}</style><linearGradient id="linear-gradient" x1="107.43" y1="117.1" x2="134.67" y2="64.74" gradientTransform="translate(-15.74 -2.98)" gradientUnits="userSpaceOnUse"><stop offset="0.04" stop-color="#2f4c9e"/><stop offset="0.23" stop-color="#2f61ad"/><stop offset="0.61" stop-color="#2f98d5"/><stop offset="0.98" stop-color="#2fd3ff"/></linearGradient><linearGradient id="linear-gradient-2" x1="130.96" y1="58.89" x2="38.27" y2="150" gradientTransform="translate(-15.74 -2.98)" gradientUnits="userSpaceOnUse"><stop offset="0.02" stop-color="#2fd3ff"/><stop offset="0.14" stop-color="#2fcbf9"/><stop offset="0.34" stop-color="#2fb6ea"/><stop offset="0.58" stop-color="#2f92d0"/><stop offset="0.85" stop-color="#2f62ae"/><stop offset="0.96" stop-color="#2f4c9e"/></linearGradient><linearGradient id="linear-gradient-3" x1="59.59" y1="125.92" x2="136.64" y2="83.21" xlink:href="#linear-gradient-2"/><linearGradient id="linear-gradient-4" x1="94.2" y1="82.7" x2="131.02" y2="125.27" xlink:href="#linear-gradient-2"/><linearGradient id="linear-gradient-5" x1="100.13" y1="77.57" x2="136.96" y2="120.13" xlink:href="#linear-gradient-2"/><linearGradient id="linear-gradient-6" x1="94.47" y1="82.47" x2="131.29" y2="125.03" xlink:href="#linear-gradient-2"/><linearGradient id="linear-gradient-7" x1="92.53" y1="84.14" x2="129.36" y2="126.71" xlink:href="#linear-gradient-2"/><linearGradient id="linear-gradient-8" x1="64.66" y1="144.37" x2="148.28" y2="89.2" gradientTransform="translate(-15.74 -2.98)" gradientUnits="userSpaceOnUse"><stop offset="0" stop-color="#2fd3ff"/><stop offset="0.03" stop-color="#2fcdfb"/><stop offset="0.34" stop-color="#2f96d3"/><stop offset="0.61" stop-color="#2f6eb6"/><stop offset="0.83" stop-color="#2f55a5"/><stop offset="0.96" stop-color="#2f4c9e"/></linearGradient><linearGradient id="linear-gradient-9" x1="87.85" y1="92.28" x2="100.28" y2="106.66" gradientTransform="matrix(1, 0, 0, 1, 0, 0)" xlink:href="#linear-gradient-2"/></defs><title>7-uranus</title><path class="cls-1" d="M99.61,97.89c-8.21,5.74.16,6.89,5.09,2.63,4.42-3.83,10.55-12.81,9-23.28a28.16,28.16,0,0,0-8.12-5.16C105.67,78.62,106.8,92.86,99.61,97.89Z" transform="translate(-53.32 -62.62)"/><path class="cls-2" d="M101.89,70.83a28.19,28.19,0,0,0-7.08-.9l-1.07,0c-4.08,4.64-8.43,10.1-11.37,13.32C79,87,73.31,90.71,67,93.88a28.36,28.36,0,0,0-.31,4.2c0,.51,0,1,0,1.53,4-1.33,9.51-3.37,17-6.47C96.65,87.74,100,77.55,101.89,70.83Z" transform="translate(-53.32 -62.62)"/><path class="cls-3" d="M95,92.64C87.34,99,74.37,102.36,67.3,104a27.93,27.93,0,0,0,2,6C98.83,106.84,103.42,85.63,95,92.64Z" transform="translate(-53.32 -62.62)"/><path class="cls-4" d="M82.38,83.29c2.94-3.22,7.29-8.68,11.37-13.32A28.14,28.14,0,0,0,67,93.88C73.31,90.71,79,87,82.38,83.29Z" transform="translate(-53.32 -62.62)"/><path class="cls-5" d="M122.37,103.82c-2.1,1.17-4.49,2.07-6.51,4.42-2.35,2.75-1.9,7.89-4.27,12.43A28.15,28.15,0,0,0,122.37,103.82Z" transform="translate(-53.32 -62.62)"/><path class="cls-6" d="M107.49,104.46c7.59-5.34,9.9-16.76,10-23a28.3,28.3,0,0,0-3.8-4.23c1.51,10.46-4.62,19.45-9,23.28-4.92,4.27-13.3,3.12-5.09-2.63,7.19-5,6.06-19.27,6-25.81a27.92,27.92,0,0,0-3.73-1.25c-1.9,6.72-5.24,16.91-18.2,22.3-7.46,3.1-13,5.14-17,6.47A28.14,28.14,0,0,0,67.3,104c7.07-1.63,20-4.95,27.72-11.34,8.41-7,3.81,14.2-25.69,17.37a28.2,28.2,0,0,0,5.83,8.19C80.25,119.58,87.8,118.31,107.49,104.46Z" transform="translate(-53.32 -62.62)"/><path class="cls-7" d="M122.37,103.82a28.26,28.26,0,0,0,.59-5.74c0-.29,0-.58,0-.87-2.18,8.83-6.34,4.21-10.36,7.58s-.33,10.83-8.86,14.94c-7.57,3.64-15.53,3.92-24,2.1a28.13,28.13,0,0,0,31.87-1.16c2.37-4.55,1.91-9.69,4.27-12.43C117.87,105.89,120.27,105,122.37,103.82Z" transform="translate(-53.32 -62.62)"/><path class="cls-8" d="M103.71,119.72c8.54-4.1,4.76-11.49,8.86-14.94s8.18,1.25,10.36-7.58a28,28,0,0,0-5.4-15.73c-.14,6.23-2.45,17.64-10,23-19.69,13.85-27.24,15.12-32.33,13.75a28.26,28.26,0,0,0,4.57,3.62C88.19,123.64,96.14,123.36,103.71,119.72Z" transform="translate(-53.32 -62.62)"/><path class="cls-9" d="M69.66,109.53A114.51,114.51,0,0,0,57.42,127a29.07,29.07,0,0,0-2.12,4.78c-.51,1.6-.83,3.41-.18,4.66a2.45,2.45,0,0,0,.29.42c.11.12.09.09.19.14a2.13,2.13,0,0,0,.93,0,11,11,0,0,0,2.32-.86,42.47,42.47,0,0,0,4.53-2.62,206.83,206.83,0,0,0,17-12.8c5.52-4.49,10.9-9.16,16.22-13.88,10.61-9.48,21-19.22,30.63-29.69a55.69,55.69,0,0,0,6.45-8.32,12,12,0,0,0,1-2.34,4,4,0,0,0,.23-2.21c-.09-.24-.24-.34-.57-.4a3.28,3.28,0,0,0-1.12.08,12.72,12.72,0,0,0-2.41.87,65.47,65.47,0,0,0-9.06,5.53c-2.91,2.06-5.77,4.18-8.58,6.39,2.67-2.36,5.42-4.65,8.26-6.82a66.08,66.08,0,0,1,9-6A13.68,13.68,0,0,1,133,62.8a4.33,4.33,0,0,1,1.53-.16,1.81,1.81,0,0,1,1.5,1.07,3.31,3.31,0,0,1,.17,1.62,8.77,8.77,0,0,1-.29,1.41,13.85,13.85,0,0,1-1,2.61,56.79,56.79,0,0,1-6.36,8.78c-4.62,5.49-9.61,10.63-14.7,15.66s-10.34,9.88-15.65,14.66-10.79,9.39-16.35,13.89q-4.19,3.35-8.51,6.55c-2.89,2.12-5.81,4.2-8.9,6.07a44.07,44.07,0,0,1-4.81,2.59,12.46,12.46,0,0,1-2.72.91,3.49,3.49,0,0,1-1.72-.06,2.07,2.07,0,0,1-.49-.26,1.8,1.8,0,0,1-.38-.37,4,4,0,0,1-.45-.7,5.44,5.44,0,0,1-.42-3A12.56,12.56,0,0,1,54,131.3a30.26,30.26,0,0,1,2.37-4.92,79.77,79.77,0,0,1,6.21-8.79Q66,113.4,69.66,109.53Z" transform="translate(-53.32 -62.62)"/></svg>